<svg width="1542" height="70" viewBox="0 0 1542 70" fill="none" xmlns="http://www.w3.org/2000/svg">
<rect x="64" y="0.00012207" width="5.18375" height="70" rx="2" fill="#4CBD89"/>
<rect x="464" y="35.2894" width="5.18375" height="34.7107" rx="2" fill="#4CBD89"/>
<rect x="144" y="10.9918" width="5.18375" height="59.0083" rx="2" fill="#4CBD89"/>
<rect x="528" y="46.2811" width="5.18375" height="23.719" rx="2" fill="#4CBD89"/>
<rect x="240" y="10.9918" width="5.18375" height="59.0083" rx="2" fill="#4CBD89"/>
<rect x="592" y="10.9918" width="5.18375" height="59.0083" rx="2" fill="#4CBD89"/>
<rect x="352" y="0.00012207" width="5.18375" height="70" rx="2" fill="#4CBD89"/>
<rect x="656" y="0.00012207" width="5.18375" height="70" rx="2" fill="#4CBD89"/>
<rect x="96" y="23.7191" width="5.18375" height="46.281" rx="2" fill="#4CBD89"/>
<rect x="480" y="46.2811" width="5.18375" height="23.719" rx="2" fill="#4CBD89"/>
<rect x="160" y="30.6613" width="5.18375" height="39.3388" rx="2" fill="#4CBD89"/>
<rect x="544" y="30.6613" width="5.18375" height="39.3388" rx="2" fill="#4CBD89"/>
<rect x="272" y="20.248" width="5.18375" height="49.7521" rx="2" fill="#4CBD89"/>
<rect x="608" y="20.248" width="5.18375" height="49.7521" rx="2" fill="#4CBD89"/>
<rect x="368" y="9.83484" width="5.18375" height="60.1653" rx="2" fill="#4CBD89"/>
<rect x="672" y="9.83484" width="5.18375" height="60.1653" rx="2" fill="#4CBD89"/>
<rect x="112" y="10.9918" width="5.18375" height="59.0083" rx="2" fill="#4CBD89"/>
<rect x="496" y="40.496" width="5.18375" height="29.5041" rx="2" fill="#4CBD89"/>
<rect x="176" y="40.496" width="5.18375" height="29.5041" rx="2" fill="#4CBD89"/>
<rect x="560" y="40.496" width="5.18375" height="29.5041" rx="2" fill="#4CBD89"/>
<rect x="304" y="35.2894" width="5.18375" height="34.7107" rx="2" fill="#4CBD89"/>
<rect x="624" y="35.2894" width="5.18375" height="34.7107" rx="2" fill="#4CBD89"/>
<rect x="400" y="38.182" width="5.18375" height="31.8182" rx="2" fill="#4CBD89"/>
<rect x="688" y="38.182" width="5.18375" height="31.8182" rx="2" fill="#4CBD89"/>
<rect x="128" y="0.00012207" width="5.18375" height="70" rx="2" fill="#4CBD89"/>
<rect x="512" y="35.2894" width="5.18375" height="34.7107" rx="2" fill="#4CBD89"/>
<rect x="208" y="0.00012207" width="5.18375" height="70" rx="2" fill="#4CBD89"/>
<rect x="576" y="26.0332" width="5.18375" height="43.9669" rx="2" fill="#4CBD89"/>
<rect x="320" y="12.7274" width="5.18375" height="57.2727" rx="2" fill="#4CBD89"/>
<rect x="640" y="12.7274" width="5.18375" height="57.2727" rx="2" fill="#4CBD89"/>
<rect x="416" y="46.2811" width="5.18375" height="23.719" rx="2" fill="#4CBD89"/>
<rect x="704" y="46.2811" width="5.18375" height="23.719" rx="2" fill="#4CBD89"/>
<rect x="432" y="41.653" width="5.18375" height="28.3471" rx="2" fill="#4CBD89"/>
<rect x="720" y="41.653" width="5.18375" height="28.3471" rx="2" fill="#4CBD89"/>
<rect x="448" y="29.5043" width="5.18375" height="40.4959" rx="2" fill="#4CBD89"/>
<rect x="736" y="29.5043" width="5.18375" height="40.4959" rx="2" fill="#4CBD89"/>
<rect x="752" y="0.00012207" width="5.18375" height="70" rx="2" fill="#4CBD89"/>
<rect x="1040" y="35.2894" width="5.18375" height="34.7107" rx="2" fill="#4CBD89"/>
<rect x="816" y="10.9918" width="5.18375" height="59.0083" rx="2" fill="#4CBD89"/>
<rect x="1120" y="46.2811" width="5.18375" height="23.719" rx="2" fill="#4CBD89"/>
<rect x="880" y="10.9918" width="5.18375" height="59.0083" rx="2" fill="#4CBD89"/>
<rect x="1216" y="10.9918" width="5.18375" height="59.0083" rx="2" fill="#4CBD89"/>
<rect x="944" y="0.00012207" width="5.18375" height="70" rx="2" fill="#4CBD89"/>
<rect x="1296" y="0.00012207" width="5.18375" height="70" rx="2" fill="#4CBD89"/>
<rect x="768" y="23.7191" width="5.18375" height="46.281" rx="2" fill="#4CBD89"/>
<rect x="1056" y="46.2811" width="5.18375" height="23.719" rx="2" fill="#4CBD89"/>
<rect x="832" y="30.6613" width="5.18375" height="39.3388" rx="2" fill="#4CBD89"/>
<rect x="1136" y="30.6613" width="5.18375" height="39.3388" rx="2" fill="#4CBD89"/>
<rect x="896" y="20.248" width="5.18375" height="49.7521" rx="2" fill="#4CBD89"/>
<rect x="1232" y="20.248" width="5.18375" height="49.7521" rx="2" fill="#4CBD89"/>
<rect x="960" y="9.83484" width="5.18375" height="60.1653" rx="2" fill="#4CBD89"/>
<rect x="1312" y="9.83484" width="5.18375" height="60.1653" rx="2" fill="#4CBD89"/>
<rect x="784" y="10.9918" width="5.18375" height="59.0083" rx="2" fill="#4CBD89"/>
<rect x="1072" y="40.496" width="5.18375" height="29.5041" rx="2" fill="#4CBD89"/>
<rect x="848" y="40.496" width="5.18375" height="29.5041" rx="2" fill="#4CBD89"/>
<rect x="1152" y="40.496" width="5.18375" height="29.5041" rx="2" fill="#4CBD89"/>
<rect x="912" y="35.2894" width="5.18375" height="34.7107" rx="2" fill="#4CBD89"/>
<rect x="1248" y="42.0001" width="5" height="28" rx="2" fill="#4CBD89"/>
<rect x="976" y="38.182" width="5.18375" height="31.8182" rx="2" fill="#4CBD89"/>
<rect x="1328" y="38.182" width="5.18375" height="31.8182" rx="2" fill="#4CBD89"/>
<rect x="800" y="0.00012207" width="5.18375" height="70" rx="2" fill="#4CBD89"/>
<rect x="1088" y="35.2894" width="5.18375" height="34.7107" rx="2" fill="#4CBD89"/>
<rect x="864" y="0.00012207" width="5.18375" height="70" rx="2" fill="#4CBD89"/>
<rect x="1168" y="26.0332" width="5.18375" height="43.9669" rx="2" fill="#4CBD89"/>
<rect x="928" y="12.7274" width="5.18375" height="57.2727" rx="2" fill="#4CBD89"/>
<rect x="1344" y="35.2894" width="5.18375" height="34.7107" rx="2" fill="#4CBD89"/>
<rect x="1504" y="35.2894" width="5.18375" height="34.7107" rx="2" fill="#4CBD89"/>
<rect x="1424" y="38.182" width="5.18375" height="31.8182" rx="2" fill="#4CBD89"/>
<rect x="1536" y="38.182" width="5.18375" height="31.8182" rx="2" fill="#4CBD89"/>
<rect x="1184" y="0.00012207" width="5.18375" height="70" rx="2" fill="#4CBD89"/>
<rect x="1456" y="35.2894" width="5.18375" height="34.7107" rx="2" fill="#4CBD89"/>
<rect x="1280" y="11.0001" width="5" height="59" rx="2" fill="#4CBD89"/>
<rect x="1488" y="6.00012" width="5" height="64" rx="2" fill="#4CBD89"/>
<rect x="1520" y="51.0001" width="5" height="19" rx="2" fill="#4CBD89"/>
<rect x="1104" y="20.0001" width="5" height="50" rx="2" fill="#4CBD89"/>
<rect x="1440" y="20.0001" width="5" height="50" rx="2" fill="#4CBD89"/>
<rect x="1200" y="28.0001" width="5" height="42" rx="2" fill="#4CBD89"/>
<rect x="1472" y="26.0332" width="5.18375" height="43.9669" rx="2" fill="#4CBD89"/>
<rect x="1376" y="12.7274" width="5.18375" height="57.2727" rx="2" fill="#4CBD89"/>
<rect x="1264" y="26.0001" width="5" height="44" rx="2" fill="#4CBD89"/>
<rect x="992" y="46.2811" width="5.18375" height="23.719" rx="2" fill="#4CBD89"/>
<rect x="1360" y="46.2811" width="5.18375" height="23.719" rx="2" fill="#4CBD89"/>
<rect x="1008" y="41.653" width="5.18375" height="28.3471" rx="2" fill="#4CBD89"/>
<rect x="1392" y="41.653" width="5.18375" height="28.3471" rx="2" fill="#4CBD89"/>
<rect x="1024" y="29.5043" width="5.18375" height="40.4959" rx="2" fill="#4CBD89"/>
<rect x="1408" y="29.5043" width="5.18375" height="40.4959" rx="2" fill="#4CBD89"/>
<rect x="336" y="19.2727" width="5" height="50" rx="2" fill="#4CBD89"/>
<rect x="48" y="27.2727" width="5" height="42" rx="2" fill="#4CBD89"/>
<rect x="384" y="25.3058" width="5.18375" height="43.9669" rx="2" fill="#4CBD89"/>
<rect x="224" y="12" width="5.18375" height="57.2727" rx="2" fill="#4CBD89"/>
<rect x="80" y="25.2727" width="5" height="44" rx="2" fill="#4CBD89"/>
<rect y="45.5537" width="5.18375" height="23.719" rx="2" fill="#4CBD89"/>
<rect x="192" y="45.5537" width="5.18375" height="23.719" rx="2" fill="#4CBD89"/>
<rect x="16" y="40.9255" width="5.18375" height="28.3471" rx="2" fill="#4CBD89"/>
<rect x="256" y="40.9255" width="5.18375" height="28.3471" rx="2" fill="#4CBD89"/>
<rect x="32" y="28.7769" width="5.18375" height="40.4959" rx="2" fill="#4CBD89"/>
<rect x="288" y="28.7769" width="5.18375" height="40.4959" rx="2" fill="#4CBD89"/>
</svg>
